<?xml version="1.0" standalone="no"?>
<!DOCTYPE svg PUBLIC "-//W3C//DTD SVG 20010904//EN"
 "http://www.w3.org/TR/2001/REC-SVG-20010904/DTD/svg10.dtd">
<svg version="1.0" xmlns="http://www.w3.org/2000/svg"
 width="700.000000pt" height="700.000000pt" viewBox="0 0 700.000000 700.000000"
 preserveAspectRatio="xMidYMid meet">
<metadata>
Created by potrace 1.14, written by Peter Selinger 2001-2017
</metadata>
<g transform="translate(0.000000,700.000000) scale(0.100000,-0.100000)"
fill="#000000" stroke="none">
<path d="M1470 4259 c-41 -21 -100 -45 -130 -52 l-55 -14 -267 -629 c-146
-346 -278 -648 -293 -671 -33 -53 -77 -81 -145 -90 -58 -9 -76 -26 -67 -64 l6
-24 278 1 278 0 0 40 0 39 -55 6 c-80 9 -114 27 -118 65 -3 34 129 392 150
405 7 5 128 9 268 9 l255 0 68 -203 c37 -111 68 -212 67 -223 0 -35 -27 -48
-109 -54 l-76 -5 0 -39 0 -39 370 0 370 1 0 38 0 39 -58 7 c-75 10 -120 38
-145 91 -11 23 -129 346 -262 717 -134 371 -245 678 -249 681 -3 3 -40 -11
-81 -32z m-40 -575 l97 -279 -205 -3 c-113 -1 -210 2 -215 7 -10 10 204 562
217 558 5 -2 53 -129 106 -283z"/>
<path d="M2612 4233 l3 -38 64 -7 c92 -10 107 -27 104 -121 -3 -108 -102
-1106 -114 -1151 -15 -55 -66 -104 -118 -112 -46 -7 -65 -30 -56 -66 l6 -23
244 0 244 0 6 23 c8 32 -11 62 -41 62 -32 0 -85 22 -102 43 -31 38 -31 91 3
581 19 269 36 491 39 493 2 2 110 -263 240 -590 130 -327 245 -602 256 -612
13 -11 27 -15 44 -11 21 5 45 55 187 388 413 972 387 914 393 877 3 -19 19
-272 37 -564 23 -398 28 -537 20 -558 -13 -32 -46 -47 -106 -47 -39 0 -45 -3
-51 -24 -3 -14 -4 -32 -2 -42 3 -17 25 -18 340 -19 l337 0 6 23 c10 41 -11 62
-61 62 -60 0 -99 22 -113 62 -12 34 -91 1079 -91 1201 0 85 21 112 96 122 72
10 74 11 74 50 l0 35 -246 -2 -245 -3 -225 -525 c-124 -289 -229 -529 -233
-533 -5 -4 -75 158 -156 360 -82 202 -179 442 -216 533 l-67 165 -252 3 -251
2 3 -37z"/>
<path d="M4895 4251 c-12 -38 10 -58 71 -64 33 -3 69 -14 83 -25 57 -42 56
-25 56 -674 0 -588 0 -597 -21 -625 -28 -38 -80 -63 -132 -63 -35 0 -44 -4
-53 -24 -8 -16 -8 -30 -1 -41 8 -16 41 -18 403 -20 548 -3 649 9 836 100 208
101 311 260 343 531 45 372 -117 689 -426 835 -167 79 -192 82 -701 86 -446 4
-451 4 -458 -16z m897 -110 c152 -53 244 -165 295 -358 22 -84 26 -126 30
-293 6 -231 -5 -302 -67 -426 -86 -176 -253 -268 -442 -244 -87 10 -122 30
-142 80 -14 36 -16 107 -16 597 0 540 1 558 20 599 31 62 65 76 175 70 52 -3
114 -13 147 -25z"/>
</g>
</svg>
